# xmcd
#
# Track frame offsets: 
#        150
#        12794
#        24476
#        35494
#        46472
#        64126
#        72290
#        91388
#        104763
#        122125
#        135336
#        147659
#        164144
#        181103
#
# Disc length: 2577 seconds
#
# Revision: 1
# Processed by: cddbd v1.5.2PL0 Copyright (c) Steve Scherf et al.
# Submitted via: ExactAudioCopy v0.99pb5
#
DISCID=ca0a0f0e
DTITLE=Jerry Jeff Walker - Jerry Jeff Jazz
DYEAR=2003
DGENRE=Country
TTITLE0=How Long Has This Been Going On
TTITLE1=Its Always You
TTITLE2=That Old Feeling
TTITLE3=I Fall in Love Too Easily
TTITLE4=My Funny Valentine
TTITLE5=Takin' A Chance on Love
TTITLE6=Everything Happens to Me
TTITLE7=In the Wee Small Hours
TTITLE8=Cottage For Sale
TTITLE9=But Not For Me
TTITLE10=There Will Never Be Another You
TTITLE11=Time After Time
TTITLE12=I Get Along Without You Very Well
TTITLE13=Look For The Silver Lining
EXTD=
EXTT0=
EXTT1=
EXTT2=
EXTT3=
EXTT4=
EXTT5=
EXTT6=
EXTT7=
EXTT8=
EXTT9=
EXTT10=
EXTT11=
EXTT12=
EXTT13=
PLAYORDER=
